<svg xmlns="http://www.w3.org/2000/svg" width="900" height="342" viewBox="0 0 900 342">
<defs>
  <style>
    .title { font: 600 11px "Courier New",monospace; fill:#1a6eee; letter-spacing:3px; text-transform:uppercase; }
    .sub   { font: 400 9px  "Courier New",monospace; fill:#c0d8ff; letter-spacing:2px; }
    .lbl   { font: 400 9px  "Courier New",monospace; fill:#c0d8ff; }
    .num   { font: 700 9px  "Courier New",monospace; text-anchor:middle; }
    .stat  { font: 700 15px "Courier New",monospace; fill:#e0eeff; }
    .stlbl { font: 400 8px  "Courier New",monospace; fill:#c0d8ff; letter-spacing:2px; }
  </style>
  <filter id="glow"><feGaussianBlur stdDeviation="3" result="b"/><feMerge><feMergeNode in="b"/><feMergeNode in="SourceGraphic"/></feMerge></filter>
</defs>
<rect width="900" height="342" fill="#060d2e" rx="2"/>
<rect width="900" height="342" fill="none" stroke="#0d2460" stroke-width="1" rx="2"/>
<line x1="0" y1="0" x2="12" y2="0" stroke="#1a6eee" stroke-width="1.5"/>
<line x1="0" y1="0" x2="0" y2="12" stroke="#1a6eee" stroke-width="1.5"/>
<line x1="900" y1="0" x2="888" y2="0" stroke="#1a6eee" stroke-width="1.5"/>
<line x1="900" y1="0" x2="900" y2="12" stroke="#1a6eee" stroke-width="1.5"/>
<line x1="0" y1="342" x2="12" y2="342" stroke="#1a6eee" stroke-width="1.5"/>
<line x1="0" y1="342" x2="0" y2="330" stroke="#1a6eee" stroke-width="1.5"/>
<line x1="900" y1="342" x2="888" y2="342" stroke="#1a6eee" stroke-width="1.5"/>
<line x1="900" y1="342" x2="900" y2="330" stroke="#1a6eee" stroke-width="1.5"/>
<line x1="80" y1="1" x2="820" y2="1" stroke="rgba(100,160,255,0.4)" stroke-width="0.5"/>
<rect x="0" y="0" width="900" height="56" fill="#1a6eee" fill-opacity="0.06" rx="2"/>
<rect x="0" y="56" width="900" height="1" fill="#0d2460"/>
<circle cx="28" cy="28" r="4" fill="#1a6eee"><animate attributeName="opacity" values="1;0.2;1" dur="2s" repeatCount="indefinite"/></circle>
<circle cx="28" cy="28" r="9" fill="#1a6eee" fill-opacity="0"><animate attributeName="r" values="5;12;5" dur="2s" repeatCount="indefinite"/><animate attributeName="fill-opacity" values="0.1;0;0.1" dur="2s" repeatCount="indefinite"/></circle>
<text x="44" y="22" class="title">Commit Grid</text>
<text x="44" y="37" class="sub">@ME-MOIR · LAST 26 WEEKS · NUMBERS = DAILY COMMITS</text>
<text x="872" y="22" class="stat" text-anchor="end">210 CONTRIBUTIONS</text>
<text x="872" y="37" class="stlbl" text-anchor="end">0 DAY STREAK</text>
<line x1="680" y1="10" x2="680" y2="46" stroke="#0d2460" stroke-width="1"/>
<text x="48" y="73" class="lbl">Oct 2025</text>
<text x="79" y="73" class="lbl">Nov 2025</text>
<text x="234" y="73" class="lbl">Dec 2025</text>
<text x="358" y="73" class="lbl">Jan 2026</text>
<text x="482" y="73" class="lbl">Feb 2026</text>
<text x="606" y="73" class="lbl">Mar 2026</text>
<text x="761" y="73" class="lbl">Apr 2026</text>
<text x="40" y="95" class="lbl" text-anchor="end">Mon</text>
<text x="40" y="157" class="lbl" text-anchor="end">Wed</text>
<text x="40" y="219" class="lbl" text-anchor="end">Fri</text>
<text x="40" y="281" class="lbl" text-anchor="end">Sun</text>
<rect x="48" y="78" width="28" height="28" rx="3" fill="#0d2a7a"/>
<rect x="50" y="80" width="24" height="4" rx="1" fill="white" fill-opacity="0.07"/>
<text x="62" y="96" class="num" fill="#c0d8ff">2</text>
<rect x="48" y="109" width="28" height="28" rx="3" fill="#0a1640"/>
<text x="62" y="127" class="num" fill="#0d2460">0</text>
<rect x="48" y="140" width="28" height="28" rx="3" fill="#0a1640"/>
<text x="62" y="158" class="num" fill="#0d2460">0</text>
<rect x="48" y="171" width="28" height="28" rx="3" fill="#0a1640"/>
<text x="62" y="189" class="num" fill="#0d2460">0</text>
<rect x="48" y="202" width="28" height="28" rx="3" fill="#0a1640"/>
<text x="62" y="220" class="num" fill="#0d2460">0</text>
<rect x="48" y="233" width="28" height="28" rx="3" fill="#0a1640"/>
<text x="62" y="251" class="num" fill="#0d2460">0</text>
<rect x="48" y="264" width="28" height="28" rx="3" fill="#0a1640"/>
<text x="62" y="282" class="num" fill="#0d2460">0</text>
<rect x="79" y="78" width="28" height="28" rx="3" fill="#0a1640"/>
<text x="93" y="96" class="num" fill="#0d2460">0</text>
<rect x="79" y="109" width="28" height="28" rx="3" fill="#0a1640"/>
<text x="93" y="127" class="num" fill="#0d2460">0</text>
<rect x="79" y="140" width="28" height="28" rx="3" fill="#0a1640"/>
<text x="93" y="158" class="num" fill="#0d2460">0</text>
<rect x="79" y="171" width="28" height="28" rx="3" fill="#0a1640"/>
<text x="93" y="189" class="num" fill="#0d2460">0</text>
<rect x="79" y="202" width="28" height="28" rx="3" fill="#0a1640"/>
<text x="93" y="220" class="num" fill="#0d2460">0</text>
<rect x="79" y="233" width="28" height="28" rx="3" fill="#0a1640"/>
<text x="93" y="251" class="num" fill="#0d2460">0</text>
<rect x="79" y="264" width="28" height="28" rx="3" fill="#0a1640"/>
<text x="93" y="282" class="num" fill="#0d2460">0</text>
<rect x="110" y="78" width="28" height="28" rx="3" fill="#0a1640"/>
<text x="124" y="96" class="num" fill="#0d2460">0</text>
<rect x="110" y="109" width="28" height="28" rx="3" fill="#0a1640"/>
<text x="124" y="127" class="num" fill="#0d2460">0</text>
<rect x="110" y="140" width="28" height="28" rx="3" fill="#0a1640"/>
<text x="124" y="158" class="num" fill="#0d2460">0</text>
<rect x="110" y="171" width="28" height="28" rx="3" fill="#0a1640"/>
<text x="124" y="189" class="num" fill="#0d2460">0</text>
<rect x="110" y="202" width="28" height="28" rx="3" fill="#0a1640"/>
<text x="124" y="220" class="num" fill="#0d2460">0</text>
<rect x="110" y="233" width="28" height="28" rx="3" fill="#0a1640"/>
<text x="124" y="251" class="num" fill="#0d2460">0</text>
<rect x="110" y="264" width="28" height="28" rx="3" fill="#0a1640"/>
<text x="124" y="282" class="num" fill="#0d2460">0</text>
<rect x="141" y="78" width="28" height="28" rx="3" fill="#0a1640"/>
<text x="155" y="96" class="num" fill="#0d2460">0</text>
<rect x="141" y="109" width="28" height="28" rx="3" fill="#0a1640"/>
<text x="155" y="127" class="num" fill="#0d2460">0</text>
<rect x="141" y="140" width="28" height="28" rx="3" fill="#0a1640"/>
<text x="155" y="158" class="num" fill="#0d2460">0</text>
<rect x="141" y="171" width="28" height="28" rx="3" fill="#0a1640"/>
<text x="155" y="189" class="num" fill="#0d2460">0</text>
<rect x="141" y="202" width="28" height="28" rx="3" fill="#0a1640"/>
<text x="155" y="220" class="num" fill="#0d2460">0</text>
<rect x="141" y="233" width="28" height="28" rx="3" fill="#0a1640"/>
<text x="155" y="251" class="num" fill="#0d2460">0</text>
<rect x="141" y="264" width="28" height="28" rx="3" fill="#0a1640"/>
<text x="155" y="282" class="num" fill="#0d2460">0</text>
<rect x="172" y="78" width="28" height="28" rx="3" fill="#0a1640"/>
<text x="186" y="96" class="num" fill="#0d2460">0</text>
<rect x="172" y="109" width="28" height="28" rx="3" fill="#0a1640"/>
<text x="186" y="127" class="num" fill="#0d2460">0</text>
<rect x="172" y="140" width="28" height="28" rx="3" fill="#0a1640"/>
<text x="186" y="158" class="num" fill="#0d2460">0</text>
<rect x="172" y="171" width="28" height="28" rx="3" fill="#0a1640"/>
<text x="186" y="189" class="num" fill="#0d2460">0</text>
<rect x="172" y="202" width="28" height="28" rx="3" fill="#0a1640"/>
<text x="186" y="220" class="num" fill="#0d2460">0</text>
<rect x="172" y="233" width="28" height="28" rx="3" fill="#0a1640"/>
<text x="186" y="251" class="num" fill="#0d2460">0</text>
<rect x="172" y="264" width="28" height="28" rx="3" fill="#0a1640"/>
<text x="186" y="282" class="num" fill="#0d2460">0</text>
<rect x="203" y="78" width="28" height="28" rx="3" fill="#0a1640"/>
<text x="217" y="96" class="num" fill="#0d2460">0</text>
<rect x="203" y="109" width="28" height="28" rx="3" fill="#0a1640"/>
<text x="217" y="127" class="num" fill="#0d2460">0</text>
<rect x="203" y="140" width="28" height="28" rx="3" fill="#0a1640"/>
<text x="217" y="158" class="num" fill="#0d2460">0</text>
<rect x="203" y="171" width="28" height="28" rx="3" fill="#0a1640"/>
<text x="217" y="189" class="num" fill="#0d2460">0</text>
<rect x="203" y="202" width="28" height="28" rx="3" fill="#0a1640"/>
<text x="217" y="220" class="num" fill="#0d2460">0</text>
<rect x="203" y="233" width="28" height="28" rx="3" fill="#0a1640"/>
<text x="217" y="251" class="num" fill="#0d2460">0</text>
<rect x="203" y="264" width="28" height="28" rx="3" fill="#0a1640"/>
<text x="217" y="282" class="num" fill="#0d2460">0</text>
<rect x="234" y="78" width="28" height="28" rx="3" fill="#0a1640"/>
<text x="248" y="96" class="num" fill="#0d2460">0</text>
<rect x="234" y="109" width="28" height="28" rx="3" fill="#0a1640"/>
<text x="248" y="127" class="num" fill="#0d2460">0</text>
<rect x="234" y="140" width="28" height="28" rx="3" fill="#0a1640"/>
<text x="248" y="158" class="num" fill="#0d2460">0</text>
<rect x="234" y="171" width="28" height="28" rx="3" fill="#0a1640"/>
<text x="248" y="189" class="num" fill="#0d2460">0</text>
<rect x="234" y="202" width="28" height="28" rx="3" fill="#0a1640"/>
<text x="248" y="220" class="num" fill="#0d2460">0</text>
<rect x="234" y="233" width="28" height="28" rx="3" fill="#0a1640"/>
<text x="248" y="251" class="num" fill="#0d2460">0</text>
<rect x="234" y="264" width="28" height="28" rx="3" fill="#0a1640"/>
<text x="248" y="282" class="num" fill="#0d2460">0</text>
<rect x="265" y="78" width="28" height="28" rx="3" fill="#0a1640"/>
<text x="279" y="96" class="num" fill="#0d2460">0</text>
<rect x="265" y="109" width="28" height="28" rx="3" fill="#0a1640"/>
<text x="279" y="127" class="num" fill="#0d2460">0</text>
<rect x="265" y="140" width="28" height="28" rx="3" fill="#0a1640"/>
<text x="279" y="158" class="num" fill="#0d2460">0</text>
<rect x="265" y="171" width="28" height="28" rx="3" fill="#0a1640"/>
<text x="279" y="189" class="num" fill="#0d2460">0</text>
<rect x="265" y="202" width="28" height="28" rx="3" fill="#0a1640"/>
<text x="279" y="220" class="num" fill="#0d2460">0</text>
<rect x="265" y="233" width="28" height="28" rx="3" fill="#0a1640"/>
<text x="279" y="251" class="num" fill="#0d2460">0</text>
<rect x="265" y="264" width="28" height="28" rx="3" fill="#0a1640"/>
<text x="279" y="282" class="num" fill="#0d2460">0</text>
<rect x="296" y="78" width="28" height="28" rx="3" fill="#0a1640"/>
<text x="310" y="96" class="num" fill="#0d2460">0</text>
<rect x="296" y="109" width="28" height="28" rx="3" fill="#0a1640"/>
<text x="310" y="127" class="num" fill="#0d2460">0</text>
<rect x="296" y="140" width="28" height="28" rx="3" fill="#0a1640"/>
<text x="310" y="158" class="num" fill="#0d2460">0</text>
<rect x="296" y="171" width="28" height="28" rx="3" fill="#0a1640"/>
<text x="310" y="189" class="num" fill="#0d2460">0</text>
<rect x="296" y="202" width="28" height="28" rx="3" fill="#0a1640"/>
<text x="310" y="220" class="num" fill="#0d2460">0</text>
<rect x="296" y="233" width="28" height="28" rx="3" fill="#0a1640"/>
<text x="310" y="251" class="num" fill="#0d2460">0</text>
<rect x="296" y="264" width="28" height="28" rx="3" fill="#0a1640"/>
<text x="310" y="282" class="num" fill="#0d2460">0</text>
<rect x="327" y="78" width="28" height="28" rx="3" fill="#0a1640"/>
<text x="341" y="96" class="num" fill="#0d2460">0</text>
<rect x="327" y="109" width="28" height="28" rx="3" fill="#0a1640"/>
<text x="341" y="127" class="num" fill="#0d2460">0</text>
<rect x="327" y="140" width="28" height="28" rx="3" fill="#0a1640"/>
<text x="341" y="158" class="num" fill="#0d2460">0</text>
<rect x="327" y="171" width="28" height="28" rx="3" fill="#0a1640"/>
<text x="341" y="189" class="num" fill="#0d2460">0</text>
<rect x="327" y="202" width="28" height="28" rx="3" fill="#0a1640"/>
<text x="341" y="220" class="num" fill="#0d2460">0</text>
<rect x="327" y="233" width="28" height="28" rx="3" fill="#0a1640"/>
<text x="341" y="251" class="num" fill="#0d2460">0</text>
<rect x="327" y="264" width="28" height="28" rx="3" fill="#0a1640"/>
<text x="341" y="282" class="num" fill="#0d2460">0</text>
<rect x="358" y="78" width="28" height="28" rx="3" fill="#0a1640"/>
<text x="372" y="96" class="num" fill="#0d2460">0</text>
<rect x="358" y="109" width="28" height="28" rx="3" fill="#0a1640"/>
<text x="372" y="127" class="num" fill="#0d2460">0</text>
<rect x="358" y="140" width="28" height="28" rx="3" fill="#0a1640"/>
<text x="372" y="158" class="num" fill="#0d2460">0</text>
<rect x="358" y="171" width="28" height="28" rx="3" fill="#0a1640"/>
<text x="372" y="189" class="num" fill="#0d2460">0</text>
<rect x="358" y="202" width="28" height="28" rx="3" fill="#0a1640"/>
<text x="372" y="220" class="num" fill="#0d2460">0</text>
<rect x="358" y="233" width="28" height="28" rx="3" fill="#0a1640"/>
<text x="372" y="251" class="num" fill="#0d2460">0</text>
<rect x="358" y="264" width="28" height="28" rx="3" fill="#0a1640"/>
<text x="372" y="282" class="num" fill="#0d2460">0</text>
<rect x="389" y="78" width="28" height="28" rx="3" fill="#0a1640"/>
<text x="403" y="96" class="num" fill="#0d2460">0</text>
<rect x="389" y="109" width="28" height="28" rx="3" fill="#0a1640"/>
<text x="403" y="127" class="num" fill="#0d2460">0</text>
<rect x="389" y="140" width="28" height="28" rx="3" fill="#0a1640"/>
<text x="403" y="158" class="num" fill="#0d2460">0</text>
<rect x="389" y="171" width="28" height="28" rx="3" fill="#0a1640"/>
<text x="403" y="189" class="num" fill="#0d2460">0</text>
<rect x="389" y="202" width="28" height="28" rx="3" fill="#0a1640"/>
<text x="403" y="220" class="num" fill="#0d2460">0</text>
<rect x="389" y="233" width="28" height="28" rx="3" fill="#0a1640"/>
<text x="403" y="251" class="num" fill="#0d2460">0</text>
<rect x="389" y="264" width="28" height="28" rx="3" fill="#0a1640"/>
<text x="403" y="282" class="num" fill="#0d2460">0</text>
<rect x="420" y="78" width="28" height="28" rx="3" fill="#0a1640"/>
<text x="434" y="96" class="num" fill="#0d2460">0</text>
<rect x="420" y="109" width="28" height="28" rx="3" fill="#0a1640"/>
<text x="434" y="127" class="num" fill="#0d2460">0</text>
<rect x="420" y="140" width="28" height="28" rx="3" fill="#0a1640"/>
<text x="434" y="158" class="num" fill="#0d2460">0</text>
<rect x="420" y="171" width="28" height="28" rx="3" fill="#0a1640"/>
<text x="434" y="189" class="num" fill="#0d2460">0</text>
<rect x="420" y="202" width="28" height="28" rx="3" fill="#0a1640"/>
<text x="434" y="220" class="num" fill="#0d2460">0</text>
<rect x="420" y="233" width="28" height="28" rx="3" fill="#0a1640"/>
<text x="434" y="251" class="num" fill="#0d2460">0</text>
<rect x="420" y="264" width="28" height="28" rx="3" fill="#0a1640"/>
<text x="434" y="282" class="num" fill="#0d2460">0</text>
<rect x="451" y="78" width="28" height="28" rx="3" fill="#0a1640"/>
<text x="465" y="96" class="num" fill="#0d2460">0</text>
<rect x="451" y="109" width="28" height="28" rx="3" fill="#0d2a7a"/>
<rect x="453" y="111" width="24" height="4" rx="1" fill="white" fill-opacity="0.07"/>
<text x="465" y="127" class="num" fill="#c0d8ff">2</text>
<rect x="451" y="140" width="28" height="28" rx="3" fill="#0d2a7a"/>
<rect x="453" y="142" width="24" height="4" rx="1" fill="white" fill-opacity="0.07"/>
<text x="465" y="158" class="num" fill="#c0d8ff">2</text>
<rect x="451" y="171" width="28" height="28" rx="3" fill="#0d2a7a"/>
<rect x="453" y="173" width="24" height="4" rx="1" fill="white" fill-opacity="0.07"/>
<text x="465" y="189" class="num" fill="#c0d8ff">2</text>
<rect x="451" y="202" width="28" height="28" rx="3" fill="#0d2a7a"/>
<rect x="453" y="204" width="24" height="4" rx="1" fill="white" fill-opacity="0.07"/>
<text x="465" y="220" class="num" fill="#c0d8ff">2</text>
<rect x="451" y="233" width="28" height="28" rx="3" fill="#1a4acc"/>
<rect x="453" y="235" width="24" height="4" rx="1" fill="white" fill-opacity="0.07"/>
<text x="465" y="251" class="num" fill="#e0eeff">3</text>
<rect x="451" y="264" width="28" height="28" rx="3" fill="#0a1640"/>
<text x="465" y="282" class="num" fill="#0d2460">0</text>
<rect x="482" y="78" width="28" height="28" rx="3" fill="#1a4acc"/>
<rect x="484" y="80" width="24" height="4" rx="1" fill="white" fill-opacity="0.07"/>
<text x="496" y="96" class="num" fill="#e0eeff">4</text>
<rect x="482" y="109" width="28" height="28" rx="3" fill="#0d2a7a"/>
<rect x="484" y="111" width="24" height="4" rx="1" fill="white" fill-opacity="0.07"/>
<text x="496" y="127" class="num" fill="#c0d8ff">1</text>
<rect x="482" y="140" width="28" height="28" rx="3" fill="#1a4acc"/>
<rect x="484" y="142" width="24" height="4" rx="1" fill="white" fill-opacity="0.07"/>
<text x="496" y="158" class="num" fill="#e0eeff">5</text>
<rect x="482" y="171" width="28" height="28" rx="3" fill="#0d2a7a"/>
<rect x="484" y="173" width="24" height="4" rx="1" fill="white" fill-opacity="0.07"/>
<text x="496" y="189" class="num" fill="#c0d8ff">2</text>
<rect x="482" y="202" width="28" height="28" rx="3" fill="#0d2a7a"/>
<rect x="484" y="204" width="24" height="4" rx="1" fill="white" fill-opacity="0.07"/>
<text x="496" y="220" class="num" fill="#c0d8ff">1</text>
<rect x="482" y="233" width="28" height="28" rx="3" fill="#0d2a7a"/>
<rect x="484" y="235" width="24" height="4" rx="1" fill="white" fill-opacity="0.07"/>
<text x="496" y="251" class="num" fill="#c0d8ff">1</text>
<rect x="482" y="264" width="28" height="28" rx="3" fill="#0d2a7a"/>
<rect x="484" y="266" width="24" height="4" rx="1" fill="white" fill-opacity="0.07"/>
<text x="496" y="282" class="num" fill="#c0d8ff">1</text>
<rect x="513" y="78" width="28" height="28" rx="3" fill="#0d2a7a"/>
<rect x="515" y="80" width="24" height="4" rx="1" fill="white" fill-opacity="0.07"/>
<text x="527" y="96" class="num" fill="#c0d8ff">1</text>
<rect x="513" y="109" width="28" height="28" rx="3" fill="#0a1640"/>
<text x="527" y="127" class="num" fill="#0d2460">0</text>
<rect x="513" y="140" width="28" height="28" rx="3" fill="#0a1640"/>
<text x="527" y="158" class="num" fill="#0d2460">0</text>
<rect x="513" y="171" width="28" height="28" rx="3" fill="#0a1640"/>
<text x="527" y="189" class="num" fill="#0d2460">0</text>
<rect x="513" y="202" width="28" height="28" rx="3" fill="#0a1640"/>
<text x="527" y="220" class="num" fill="#0d2460">0</text>
<rect x="513" y="233" width="28" height="28" rx="3" fill="#0d2a7a"/>
<rect x="515" y="235" width="24" height="4" rx="1" fill="white" fill-opacity="0.07"/>
<text x="527" y="251" class="num" fill="#c0d8ff">1</text>
<rect x="513" y="264" width="28" height="28" rx="3" fill="#0a1640"/>
<text x="527" y="282" class="num" fill="#0d2460">0</text>
<rect x="544" y="78" width="28" height="28" rx="3" fill="#0a1640"/>
<text x="558" y="96" class="num" fill="#0d2460">0</text>
<rect x="544" y="109" width="28" height="28" rx="3" fill="#0a1640"/>
<text x="558" y="127" class="num" fill="#0d2460">0</text>
<rect x="544" y="140" width="28" height="28" rx="3" fill="#1a4acc"/>
<rect x="546" y="142" width="24" height="4" rx="1" fill="white" fill-opacity="0.07"/>
<text x="558" y="158" class="num" fill="#e0eeff">3</text>
<rect x="544" y="171" width="28" height="28" rx="3" fill="#1a4acc"/>
<rect x="546" y="173" width="24" height="4" rx="1" fill="white" fill-opacity="0.07"/>
<text x="558" y="189" class="num" fill="#e0eeff">3</text>
<rect x="544" y="202" width="28" height="28" rx="3" fill="#1a4acc"/>
<rect x="546" y="204" width="24" height="4" rx="1" fill="white" fill-opacity="0.07"/>
<text x="558" y="220" class="num" fill="#e0eeff">3</text>
<rect x="544" y="233" width="28" height="28" rx="3" fill="#0d2a7a"/>
<rect x="546" y="235" width="24" height="4" rx="1" fill="white" fill-opacity="0.07"/>
<text x="558" y="251" class="num" fill="#c0d8ff">1</text>
<rect x="544" y="264" width="28" height="28" rx="3" fill="#0a1640"/>
<text x="558" y="282" class="num" fill="#0d2460">0</text>
<rect x="575" y="78" width="28" height="28" rx="3" fill="#1a6eee"/>
<rect x="577" y="80" width="24" height="4" rx="1" fill="white" fill-opacity="0.07"/>
<text x="589" y="96" class="num" fill="#e0eeff">7</text>
<rect x="575" y="109" width="28" height="28" rx="3" fill="#1a6eee"/>
<rect x="577" y="111" width="24" height="4" rx="1" fill="white" fill-opacity="0.07"/>
<text x="589" y="127" class="num" fill="#e0eeff">8</text>
<rect x="575" y="140" width="28" height="28" rx="3" fill="#1a4acc"/>
<rect x="577" y="142" width="24" height="4" rx="1" fill="white" fill-opacity="0.07"/>
<text x="589" y="158" class="num" fill="#e0eeff">3</text>
<rect x="575" y="171" width="28" height="28" rx="3" fill="#0d2a7a"/>
<rect x="577" y="173" width="24" height="4" rx="1" fill="white" fill-opacity="0.07"/>
<text x="589" y="189" class="num" fill="#c0d8ff">1</text>
<rect x="575" y="202" width="28" height="28" rx="3" fill="#1a4acc"/>
<rect x="577" y="204" width="24" height="4" rx="1" fill="white" fill-opacity="0.07"/>
<text x="589" y="220" class="num" fill="#e0eeff">3</text>
<rect x="575" y="233" width="28" height="28" rx="3" fill="#0d2a7a"/>
<rect x="577" y="235" width="24" height="4" rx="1" fill="white" fill-opacity="0.07"/>
<text x="589" y="251" class="num" fill="#c0d8ff">1</text>
<rect x="575" y="264" width="28" height="28" rx="3" fill="#0d2a7a"/>
<rect x="577" y="266" width="24" height="4" rx="1" fill="white" fill-opacity="0.07"/>
<text x="589" y="282" class="num" fill="#c0d8ff">2</text>
<rect x="606" y="78" width="28" height="28" rx="3" fill="#1a6eee"/>
<rect x="608" y="80" width="24" height="4" rx="1" fill="white" fill-opacity="0.07"/>
<text x="620" y="96" class="num" fill="#e0eeff">6</text>
<rect x="606" y="109" width="28" height="28" rx="3" fill="#1a4acc"/>
<rect x="608" y="111" width="24" height="4" rx="1" fill="white" fill-opacity="0.07"/>
<text x="620" y="127" class="num" fill="#e0eeff">5</text>
<rect x="606" y="140" width="28" height="28" rx="3" fill="#1a4acc"/>
<rect x="608" y="142" width="24" height="4" rx="1" fill="white" fill-opacity="0.07"/>
<text x="620" y="158" class="num" fill="#e0eeff">5</text>
<rect x="606" y="171" width="28" height="28" rx="3" fill="#0d2a7a"/>
<rect x="608" y="173" width="24" height="4" rx="1" fill="white" fill-opacity="0.07"/>
<text x="620" y="189" class="num" fill="#c0d8ff">1</text>
<rect x="604" y="200" width="32" height="32" rx="3" fill="#ffab00" fill-opacity="0.35" filter="url(#glow)"/>
<rect x="606" y="202" width="28" height="28" rx="3" fill="#ffab00"/>
<rect x="608" y="204" width="24" height="4" rx="1" fill="white" fill-opacity="0.07"/>
<text x="620" y="220" class="num" fill="#1a1a00">45</text>
<rect x="606" y="233" width="28" height="28" rx="3" fill="#1a4acc"/>
<rect x="608" y="235" width="24" height="4" rx="1" fill="white" fill-opacity="0.07"/>
<text x="620" y="251" class="num" fill="#e0eeff">3</text>
<rect x="606" y="264" width="28" height="28" rx="3" fill="#0d2a7a"/>
<rect x="608" y="266" width="24" height="4" rx="1" fill="white" fill-opacity="0.07"/>
<text x="620" y="282" class="num" fill="#c0d8ff">1</text>
<rect x="637" y="78" width="28" height="28" rx="3" fill="#0d2a7a"/>
<rect x="639" y="80" width="24" height="4" rx="1" fill="white" fill-opacity="0.07"/>
<text x="651" y="96" class="num" fill="#c0d8ff">1</text>
<rect x="637" y="109" width="28" height="28" rx="3" fill="#0d2a7a"/>
<rect x="639" y="111" width="24" height="4" rx="1" fill="white" fill-opacity="0.07"/>
<text x="651" y="127" class="num" fill="#c0d8ff">2</text>
<rect x="637" y="140" width="28" height="28" rx="3" fill="#1a6eee"/>
<rect x="639" y="142" width="24" height="4" rx="1" fill="white" fill-opacity="0.07"/>
<text x="651" y="158" class="num" fill="#e0eeff">6</text>
<rect x="637" y="171" width="28" height="28" rx="3" fill="#0a1640"/>
<text x="651" y="189" class="num" fill="#0d2460">0</text>
<rect x="637" y="202" width="28" height="28" rx="3" fill="#0d2a7a"/>
<rect x="639" y="204" width="24" height="4" rx="1" fill="white" fill-opacity="0.07"/>
<text x="651" y="220" class="num" fill="#c0d8ff">1</text>
<rect x="637" y="233" width="28" height="28" rx="3" fill="#0d2a7a"/>
<rect x="639" y="235" width="24" height="4" rx="1" fill="white" fill-opacity="0.07"/>
<text x="651" y="251" class="num" fill="#c0d8ff">1</text>
<rect x="637" y="264" width="28" height="28" rx="3" fill="#0a1640"/>
<text x="651" y="282" class="num" fill="#0d2460">0</text>
<rect x="668" y="78" width="28" height="28" rx="3" fill="#0a1640"/>
<text x="682" y="96" class="num" fill="#0d2460">0</text>
<rect x="668" y="109" width="28" height="28" rx="3" fill="#0d2a7a"/>
<rect x="670" y="111" width="24" height="4" rx="1" fill="white" fill-opacity="0.07"/>
<text x="682" y="127" class="num" fill="#c0d8ff">1</text>
<rect x="668" y="140" width="28" height="28" rx="3" fill="#0a1640"/>
<text x="682" y="158" class="num" fill="#0d2460">0</text>
<rect x="668" y="171" width="28" height="28" rx="3" fill="#0a1640"/>
<text x="682" y="189" class="num" fill="#0d2460">0</text>
<rect x="668" y="202" width="28" height="28" rx="3" fill="#0d2a7a"/>
<rect x="670" y="204" width="24" height="4" rx="1" fill="white" fill-opacity="0.07"/>
<text x="682" y="220" class="num" fill="#c0d8ff">1</text>
<rect x="668" y="233" width="28" height="28" rx="3" fill="#1a4acc"/>
<rect x="670" y="235" width="24" height="4" rx="1" fill="white" fill-opacity="0.07"/>
<text x="682" y="251" class="num" fill="#e0eeff">5</text>
<rect x="668" y="264" width="28" height="28" rx="3" fill="#0a1640"/>
<text x="682" y="282" class="num" fill="#0d2460">0</text>
<rect x="699" y="78" width="28" height="28" rx="3" fill="#0d2a7a"/>
<rect x="701" y="80" width="24" height="4" rx="1" fill="white" fill-opacity="0.07"/>
<text x="713" y="96" class="num" fill="#c0d8ff">1</text>
<rect x="699" y="109" width="28" height="28" rx="3" fill="#0d2a7a"/>
<rect x="701" y="111" width="24" height="4" rx="1" fill="white" fill-opacity="0.07"/>
<text x="713" y="127" class="num" fill="#c0d8ff">1</text>
<rect x="699" y="140" width="28" height="28" rx="3" fill="#0a1640"/>
<text x="713" y="158" class="num" fill="#0d2460">0</text>
<rect x="699" y="171" width="28" height="28" rx="3" fill="#0a1640"/>
<text x="713" y="189" class="num" fill="#0d2460">0</text>
<rect x="699" y="202" width="28" height="28" rx="3" fill="#0a1640"/>
<text x="713" y="220" class="num" fill="#0d2460">0</text>
<rect x="699" y="233" width="28" height="28" rx="3" fill="#0a1640"/>
<text x="713" y="251" class="num" fill="#0d2460">0</text>
<rect x="699" y="264" width="28" height="28" rx="3" fill="#0a1640"/>
<text x="713" y="282" class="num" fill="#0d2460">0</text>
<rect x="730" y="78" width="28" height="28" rx="3" fill="#0a1640"/>
<text x="744" y="96" class="num" fill="#0d2460">0</text>
<rect x="730" y="109" width="28" height="28" rx="3" fill="#0a1640"/>
<text x="744" y="127" class="num" fill="#0d2460">0</text>
<rect x="730" y="140" width="28" height="28" rx="3" fill="#0a1640"/>
<text x="744" y="158" class="num" fill="#0d2460">0</text>
<rect x="730" y="171" width="28" height="28" rx="3" fill="#0a1640"/>
<text x="744" y="189" class="num" fill="#0d2460">0</text>
<rect x="730" y="202" width="28" height="28" rx="3" fill="#0a1640"/>
<text x="744" y="220" class="num" fill="#0d2460">0</text>
<rect x="730" y="233" width="28" height="28" rx="3" fill="#0a1640"/>
<text x="744" y="251" class="num" fill="#0d2460">0</text>
<rect x="730" y="264" width="28" height="28" rx="3" fill="#0a1640"/>
<text x="744" y="282" class="num" fill="#0d2460">0</text>
<rect x="761" y="78" width="28" height="28" rx="3" fill="#0a1640"/>
<text x="775" y="96" class="num" fill="#0d2460">0</text>
<rect x="761" y="109" width="28" height="28" rx="3" fill="#0a1640"/>
<text x="775" y="127" class="num" fill="#0d2460">0</text>
<rect x="761" y="140" width="28" height="28" rx="3" fill="#0a1640"/>
<text x="775" y="158" class="num" fill="#0d2460">0</text>
<rect x="761" y="171" width="28" height="28" rx="3" fill="#0a1640"/>
<text x="775" y="189" class="num" fill="#0d2460">0</text>
<rect x="761" y="202" width="28" height="28" rx="3" fill="#0a1640"/>
<text x="775" y="220" class="num" fill="#0d2460">0</text>
<rect x="761" y="233" width="28" height="28" rx="3" fill="#1a4acc"/>
<rect x="763" y="235" width="24" height="4" rx="1" fill="white" fill-opacity="0.07"/>
<text x="775" y="251" class="num" fill="#e0eeff">4</text>
<rect x="761" y="264" width="28" height="28" rx="3" fill="#0d2a7a"/>
<rect x="763" y="266" width="24" height="4" rx="1" fill="white" fill-opacity="0.07"/>
<text x="775" y="282" class="num" fill="#c0d8ff">1</text>
<rect x="792" y="78" width="28" height="28" rx="3" fill="#0a1640"/>
<text x="806" y="96" class="num" fill="#0d2460">0</text>
<rect x="792" y="109" width="28" height="28" rx="3" fill="#0a1640"/>
<text x="806" y="127" class="num" fill="#0d2460">0</text>
<rect x="792" y="140" width="28" height="28" rx="3" fill="#0a1640"/>
<text x="806" y="158" class="num" fill="#0d2460">0</text>
<rect x="792" y="171" width="28" height="28" rx="3" fill="#0a1640"/>
<text x="806" y="189" class="num" fill="#0d2460">0</text>
<rect x="792" y="202" width="28" height="28" rx="3" fill="#0a1640"/>
<text x="806" y="220" class="num" fill="#0d2460">0</text>
<rect x="792" y="233" width="28" height="28" rx="3" fill="#0a1640"/>
<text x="806" y="251" class="num" fill="#0d2460">0</text>
<rect x="792" y="264" width="28" height="28" rx="3" fill="#0a1640"/>
<text x="806" y="282" class="num" fill="#0d2460">0</text>
<rect x="823" y="78" width="28" height="28" rx="3" fill="#0a1640"/>
<text x="837" y="96" class="num" fill="#0d2460">0</text>
<rect x="823" y="109" width="28" height="28" rx="3" fill="#0a1640"/>
<text x="837" y="127" class="num" fill="#0d2460">0</text>
<rect x="823" y="140" width="28" height="28" rx="3" fill="#0a1640"/>
<text x="837" y="158" class="num" fill="#0d2460">0</text>
<rect x="823" y="171" width="28" height="28" rx="3" fill="#0a1640"/>
<text x="837" y="189" class="num" fill="#0d2460">0</text>
<rect x="823" y="202" width="28" height="28" rx="3" fill="#0a1640"/>
<text x="837" y="220" class="num" fill="#0d2460">0</text>
<rect x="823" y="233" width="28" height="28" rx="3" fill="#0a1640"/>
<text x="837" y="251" class="num" fill="#0d2460">0</text>
<rect x="823" y="264" width="28" height="28" rx="3" fill="#0a1640"/>
<text x="837" y="282" class="num" fill="#0d2460">0</text>
<text x="48" y="316" class="lbl">NONE</text>
<rect x="92" y="306" width="28" height="28" rx="3" fill="#0a1640"/>
<text x="106" y="323" class="num" fill="#0d2460" style="font-size:8px">0</text>
<rect x="125" y="306" width="28" height="28" rx="3" fill="#0d2a7a"/>
<text x="139" y="323" class="num" fill="#c0d8ff" style="font-size:8px">1-2</text>
<rect x="158" y="306" width="28" height="28" rx="3" fill="#1a4acc"/>
<text x="172" y="323" class="num" fill="#c0d8ff" style="font-size:8px">3-5</text>
<rect x="191" y="306" width="28" height="28" rx="3" fill="#1a6eee"/>
<text x="205" y="323" class="num" fill="#c0d8ff" style="font-size:8px">6-9</text>
<rect x="224" y="306" width="28" height="28" rx="3" fill="#ffab00"/>
<text x="238" y="323" class="num" fill="#c0d8ff" style="font-size:8px">10+</text>
<text x="261" y="316" class="lbl">COMMITS/DAY</text>
<text x="872" y="316" class="sub" text-anchor="end">SYNCED 23 Apr 2026 03:50 UTC</text>
</svg>