<svg xmlns="http://www.w3.org/2000/svg" width="900" height="110" viewBox="0 0 900 110">
<defs>
  <linearGradient id="fbg" x1="0" y1="0" x2="1" y2="1">
    <stop offset="0%" stop-color="#060d2e"/>
    <stop offset="100%" stop-color="#02050f"/>
  </linearGradient>
  <linearGradient id="ftile" x1="0" y1="0" x2="0" y2="1">
    <stop offset="0%" stop-color="#1a6eee" stop-opacity="0.08"/>
    <stop offset="100%" stop-color="#1a6eee" stop-opacity="0.02"/>
  </linearGradient>
</defs>

<rect width="900" height="110" fill="url(#fbg)" rx="2"/>
<rect width="900" height="110" fill="none" stroke="#6a8abf" stroke-width="1" rx="2"/>

<!-- corner brackets -->
<line x1="0" y1="0" x2="18" y2="0" stroke="#1a6eee" stroke-width="1.5"/>
<line x1="0" y1="0" x2="0" y2="18" stroke="#1a6eee" stroke-width="1.5"/>
<line x1="900" y1="0" x2="882" y2="0" stroke="#1a6eee" stroke-width="1.5"/>
<line x1="900" y1="0" x2="900" y2="18" stroke="#1a6eee" stroke-width="1.5"/>
<line x1="0" y1="110" x2="18" y2="110" stroke="#1a6eee" stroke-width="1.5"/>
<line x1="0" y1="110" x2="0" y2="92" stroke="#1a6eee" stroke-width="1.5"/>
<line x1="900" y1="110" x2="882" y2="110" stroke="#1a6eee" stroke-width="1.5"/>
<line x1="900" y1="110" x2="900" y2="92" stroke="#1a6eee" stroke-width="1.5"/>

<!-- glass catchlight -->
<line x1="80" y1="1" x2="820" y2="1" stroke="rgba(100,160,255,0.35)" stroke-width="0.5"/>

<!-- section label -->
<text x="28" y="22" font-family="'Courier New',monospace" font-size="9" fill="#6a8abf" letter-spacing="3">FOCUS</text>

<!-- tiles -->
<!-- tile 1 -->
<rect x="28" y="32" width="154" height="62" rx="1" fill="url(#ftile)" stroke="#e0eeff" stroke-width="0.5" stroke-opacity="0.4"/>
<rect x="28" y="32" width="154" height="2" fill="#1a6eee" fill-opacity="0.35" rx="1"/>
<text x="40" y="52" font-family="'Courier New',monospace" font-size="9" fill="#6a8abf" letter-spacing="1">01</text>
<text x="40" y="72" font-family="'Courier New',monospace" font-size="11" fill="#e0eeff" letter-spacing="1">Systems Arch.</text>

<!-- tile 2 -->
<rect x="192" y="32" width="154" height="62" rx="1" fill="url(#ftile)" stroke="#e0eeff" stroke-width="0.5" stroke-opacity="0.4"/>
<rect x="192" y="32" width="154" height="2" fill="#1a6eee" fill-opacity="0.35" rx="1"/>
<text x="204" y="52" font-family="'Courier New',monospace" font-size="9" fill="#6a8abf" letter-spacing="1">02</text>
<text x="204" y="72" font-family="'Courier New',monospace" font-size="11" fill="#e0eeff" letter-spacing="1">Defense Tech</text>

<!-- tile 3 -->
<rect x="356" y="32" width="154" height="62" rx="1" fill="url(#ftile)" stroke="#e0eeff" stroke-width="0.5" stroke-opacity="0.4"/>
<rect x="356" y="32" width="154" height="2" fill="#1a6eee" fill-opacity="0.35" rx="1"/>
<text x="368" y="52" font-family="'Courier New',monospace" font-size="9" fill="#6a8abf" letter-spacing="1">03</text>
<text x="368" y="72" font-family="'Courier New',monospace" font-size="11" fill="#e0eeff" letter-spacing="1">Full-Stack Eng.</text>

<!-- tile 4 -->
<rect x="520" y="32" width="154" height="62" rx="1" fill="url(#ftile)" stroke="#e0eeff" stroke-width="0.5" stroke-opacity="0.4"/>
<rect x="520" y="32" width="154" height="2" fill="#1a6eee" fill-opacity="0.35" rx="1"/>
<text x="532" y="52" font-family="'Courier New',monospace" font-size="9" fill="#6a8abf" letter-spacing="1">04</text>
<text x="532" y="72" font-family="'Courier New',monospace" font-size="11" fill="#e0eeff" letter-spacing="1">3D / WebGL</text>

<!-- tile 5 -->
<rect x="684" y="32" width="188" height="62" rx="1" fill="url(#ftile)" stroke="#e0eeff" stroke-width="0.5" stroke-opacity="0.4"/>
<rect x="684" y="32" width="188" height="2" fill="#1a6eee" fill-opacity="0.35" rx="1"/>
<text x="696" y="52" font-family="'Courier New',monospace" font-size="9" fill="#6a8abf" letter-spacing="1">05</text>
<text x="696" y="72" font-family="'Courier New',monospace" font-size="11" fill="#e0eeff" letter-spacing="1">Data &amp; APIs</text>
</svg>
