<svg xmlns="http://www.w3.org/2000/svg" width="900" height="280" viewBox="0 0 900 280">
<defs>
  <linearGradient id="pbg" x1="0" y1="0" x2="1" y2="1">
    <stop offset="0%" stop-color="#060d2e"/>
    <stop offset="100%" stop-color="#02050f"/>
  </linearGradient>
  <linearGradient id="skillbar" x1="0" y1="0" x2="1" y2="0">
    <stop offset="0%" stop-color="#6a8abf"/>
    <stop offset="100%" stop-color="#1a6eee"/>
  </linearGradient>
  <filter id="barglow">
    <feGaussianBlur stdDeviation="2" result="b"/>
    <feMerge><feMergeNode in="b"/><feMergeNode in="SourceGraphic"/></feMerge>
  </filter>
</defs>

<rect width="900" height="280" fill="url(#pbg)" rx="2"/>
<rect width="900" height="280" fill="none" stroke="#6a8abf" stroke-width="1" rx="2"/>

<!-- vertical divider -->
<line x1="450" y1="20" x2="450" y2="260" stroke="#6a8abf" stroke-width="1"/>

<!-- corner brackets -->
<line x1="0" y1="0" x2="18" y2="0" stroke="#1a6eee" stroke-width="1.5"/>
<line x1="0" y1="0" x2="0" y2="18" stroke="#1a6eee" stroke-width="1.5"/>
<line x1="900" y1="0" x2="882" y2="0" stroke="#1a6eee" stroke-width="1.5"/>
<line x1="900" y1="0" x2="900" y2="18" stroke="#1a6eee" stroke-width="1.5"/>
<line x1="0" y1="280" x2="18" y2="280" stroke="#1a6eee" stroke-width="1.5"/>
<line x1="0" y1="280" x2="0" y2="262" stroke="#1a6eee" stroke-width="1.5"/>
<line x1="900" y1="280" x2="882" y2="280" stroke="#1a6eee" stroke-width="1.5"/>
<line x1="900" y1="280" x2="900" y2="262" stroke="#1a6eee" stroke-width="1.5"/>

<!-- glass catchlight -->
<line x1="80" y1="1" x2="820" y2="1" stroke="rgba(100,160,255,0.35)" stroke-width="0.5"/>

<!-- ── LEFT: OPERATOR ── -->
<text x="32" y="36" font-family="'Courier New',monospace" font-size="9" fill="#6a8abf" letter-spacing="3">OPERATOR</text>

<!-- rows -->
<line x1="32" y1="48" x2="418" y2="48" stroke="#6a8abf" stroke-width="0.5"/>
<text x="32" y="68" font-family="'Courier New',monospace" font-size="11" fill="#6a8abf">handle</text>
<text x="200" y="68" font-family="'Courier New',monospace" font-size="11" fill="#1a6eee">Me-moir</text>
<line x1="32" y1="76" x2="418" y2="76" stroke="#6a8abf" stroke-width="0.5" stroke-opacity="0.5"/>

<text x="32" y="96" font-family="'Courier New',monospace" font-size="11" fill="#6a8abf">name</text>
<text x="200" y="96" font-family="'Courier New',monospace" font-size="11" fill="#e0eeff">Janssen Jekk</text>
<line x1="32" y1="104" x2="418" y2="104" stroke="#6a8abf" stroke-width="0.5" stroke-opacity="0.5"/>

<text x="32" y="124" font-family="'Courier New',monospace" font-size="11" fill="#6a8abf">class</text>
<text x="200" y="124" font-family="'Courier New',monospace" font-size="11" fill="#e0eeff">Full-Stack · 3D · Cloud</text>
<line x1="32" y1="132" x2="418" y2="132" stroke="#6a8abf" stroke-width="0.5" stroke-opacity="0.5"/>

<text x="32" y="152" font-family="'Courier New',monospace" font-size="11" fill="#6a8abf">stack</text>
<text x="200" y="152" font-family="'Courier New',monospace" font-size="11" fill="#e0eeff">Next.js · React · TS</text>
<line x1="32" y1="160" x2="418" y2="160" stroke="#6a8abf" stroke-width="0.5" stroke-opacity="0.5"/>

<text x="32" y="180" font-family="'Courier New',monospace" font-size="11" fill="#6a8abf">cloud</text>
<text x="200" y="180" font-family="'Courier New',monospace" font-size="11" fill="#e0eeff">AWS · GCP · Vercel</text>
<line x1="32" y1="188" x2="418" y2="188" stroke="#6a8abf" stroke-width="0.5" stroke-opacity="0.5"/>

<text x="32" y="208" font-family="'Courier New',monospace" font-size="11" fill="#6a8abf">db</text>
<text x="200" y="208" font-family="'Courier New',monospace" font-size="11" fill="#e0eeff">PostgreSQL · Prisma</text>
<line x1="32" y1="216" x2="418" y2="216" stroke="#6a8abf" stroke-width="0.5" stroke-opacity="0.5"/>

<text x="32" y="236" font-family="'Courier New',monospace" font-size="11" fill="#6a8abf">mode</text>
<text x="200" y="236" font-family="'Courier New',monospace" font-size="11" fill="#1a6eee">lowkey</text>

<!-- ── RIGHT: PROFICIENCY ── -->
<text x="476" y="36" font-family="'Courier New',monospace" font-size="9" fill="#6a8abf" letter-spacing="3">PROFICIENCY</text>
<line x1="476" y1="48" x2="868" y2="48" stroke="#6a8abf" stroke-width="0.5"/>

<!-- skill 1: Next.js / React 93% -->
<text x="476" y="78" font-family="'Courier New',monospace" font-size="11" fill="#e0eeff">Next.js / React</text>
<text x="860" y="78" font-family="'Courier New',monospace" font-size="9" fill="#1a6eee" text-anchor="end">93</text>
<rect x="476" y="84" width="384" height="2" rx="1" fill="#6a8abf"/>
<rect x="476" y="84" width="357" height="2" rx="1" fill="url(#skillbar)" filter="url(#barglow)"/>
<circle cx="833" cy="85" r="3.5" fill="#1a6eee" filter="url(#barglow)"/>

<!-- skill 2: TypeScript 90% -->
<text x="476" y="112" font-family="'Courier New',monospace" font-size="11" fill="#e0eeff">TypeScript</text>
<text x="860" y="112" font-family="'Courier New',monospace" font-size="9" fill="#1a6eee" text-anchor="end">90</text>
<rect x="476" y="118" width="384" height="2" rx="1" fill="#6a8abf"/>
<rect x="476" y="118" width="346" height="2" rx="1" fill="url(#skillbar)" filter="url(#barglow)"/>
<circle cx="822" cy="119" r="3.5" fill="#1a6eee" filter="url(#barglow)"/>

<!-- skill 3: Systems Design 88% -->
<text x="476" y="146" font-family="'Courier New',monospace" font-size="11" fill="#e0eeff">Systems Design</text>
<text x="860" y="146" font-family="'Courier New',monospace" font-size="9" fill="#1a6eee" text-anchor="end">88</text>
<rect x="476" y="152" width="384" height="2" rx="1" fill="#6a8abf"/>
<rect x="476" y="152" width="338" height="2" rx="1" fill="url(#skillbar)" filter="url(#barglow)"/>
<circle cx="814" cy="153" r="3.5" fill="#1a6eee" filter="url(#barglow)"/>

<!-- skill 4: Three.js / WebGL 85% -->
<text x="476" y="180" font-family="'Courier New',monospace" font-size="11" fill="#e0eeff">Three.js / WebGL</text>
<text x="860" y="180" font-family="'Courier New',monospace" font-size="9" fill="#1a6eee" text-anchor="end">85</text>
<rect x="476" y="186" width="384" height="2" rx="1" fill="#6a8abf"/>
<rect x="476" y="186" width="326" height="2" rx="1" fill="url(#skillbar)" filter="url(#barglow)"/>
<circle cx="802" cy="187" r="3.5" fill="#1a6eee" filter="url(#barglow)"/>

<!-- skill 5: Cloud / DevOps 82% -->
<text x="476" y="214" font-family="'Courier New',monospace" font-size="11" fill="#e0eeff">Cloud / DevOps</text>
<text x="860" y="214" font-family="'Courier New',monospace" font-size="9" fill="#1a6eee" text-anchor="end">82</text>
<rect x="476" y="220" width="384" height="2" rx="1" fill="#6a8abf"/>
<rect x="476" y="220" width="315" height="2" rx="1" fill="url(#skillbar)" filter="url(#barglow)"/>
<circle cx="791" cy="221" r="3.5" fill="#1a6eee" filter="url(#barglow)"/>
</svg>
