<svg xmlns="http://www.w3.org/2000/svg" width="900" height="440" viewBox="0 0 900 440">
<defs>
  <linearGradient id="sbg" x1="0" y1="0" x2="1" y2="1">
    <stop offset="0%" stop-color="#060d2e"/>
    <stop offset="100%" stop-color="#02050f"/>
  </linearGradient>
</defs>

<rect width="900" height="440" fill="url(#sbg)" rx="2"/>
<rect width="900" height="440" fill="none" stroke="#6a8abf" stroke-width="1" rx="2"/>

<!-- col dividers -->
<line x1="310" y1="20" x2="310" y2="420" stroke="#6a8abf" stroke-width="0.8"/>
<line x1="600" y1="20" x2="600" y2="420" stroke="#6a8abf" stroke-width="0.8"/>

<!-- corner brackets -->
<line x1="0" y1="0" x2="18" y2="0" stroke="#1a6eee" stroke-width="1.5"/>
<line x1="0" y1="0" x2="0" y2="18" stroke="#1a6eee" stroke-width="1.5"/>
<line x1="900" y1="0" x2="882" y2="0" stroke="#1a6eee" stroke-width="1.5"/>
<line x1="900" y1="0" x2="900" y2="18" stroke="#1a6eee" stroke-width="1.5"/>
<line x1="0" y1="440" x2="18" y2="440" stroke="#1a6eee" stroke-width="1.5"/>
<line x1="0" y1="440" x2="0" y2="422" stroke="#1a6eee" stroke-width="1.5"/>
<line x1="900" y1="440" x2="882" y2="440" stroke="#1a6eee" stroke-width="1.5"/>
<line x1="900" y1="440" x2="900" y2="422" stroke="#1a6eee" stroke-width="1.5"/>

<!-- glass catchlight -->
<line x1="80" y1="1" x2="820" y2="1" stroke="rgba(100,160,255,0.35)" stroke-width="0.5"/>

<!-- section label -->
<text x="32" y="28" font-family="'Courier New',monospace" font-size="9" fill="#6a8abf" letter-spacing="3">STACK</text>

<!-- ── COL 1: FRONTEND ── -->
<text x="32" y="56" font-family="'Courier New',monospace" font-size="9" fill="#6a8abf" letter-spacing="2">FRONTEND</text>
<line x1="32" y1="62" x2="278" y2="62" stroke="#6a8abf" stroke-width="0.6"/>
<circle cx="38" cy="82" r="2.5" fill="#1a6eee" fill-opacity="0.7"/>
<text x="50" y="87" font-family="'Courier New',monospace" font-size="12" fill="#e0eeff">Next.js</text>
<circle cx="38" cy="106" r="2.5" fill="#1a6eee" fill-opacity="0.7"/>
<text x="50" y="111" font-family="'Courier New',monospace" font-size="12" fill="#e0eeff">React</text>
<circle cx="38" cy="130" r="2.5" fill="#1a6eee" fill-opacity="0.7"/>
<text x="50" y="135" font-family="'Courier New',monospace" font-size="12" fill="#e0eeff">TypeScript</text>
<circle cx="38" cy="154" r="2.5" fill="#1a6eee" fill-opacity="0.7"/>
<text x="50" y="159" font-family="'Courier New',monospace" font-size="12" fill="#e0eeff">Tailwind CSS</text>
<circle cx="38" cy="178" r="2.5" fill="#1a6eee" fill-opacity="0.2"/>
<text x="50" y="183" font-family="'Courier New',monospace" font-size="12" fill="#6a8abf">shadcn/ui</text>
<circle cx="38" cy="202" r="2.5" fill="#1a6eee" fill-opacity="0.2"/>
<text x="50" y="207" font-family="'Courier New',monospace" font-size="12" fill="#6a8abf">Framer Motion</text>

<text x="32" y="238" font-family="'Courier New',monospace" font-size="9" fill="#6a8abf" letter-spacing="2">3D / VISUALIZATION</text>
<line x1="32" y1="244" x2="278" y2="244" stroke="#6a8abf" stroke-width="0.6"/>
<circle cx="38" cy="264" r="2.5" fill="#ffab00" fill-opacity="0.8"/>
<text x="50" y="269" font-family="'Courier New',monospace" font-size="12" fill="#e0eeff">Three.js</text>
<circle cx="38" cy="288" r="2.5" fill="#ffab00" fill-opacity="0.8"/>
<text x="50" y="293" font-family="'Courier New',monospace" font-size="12" fill="#e0eeff">React Three Fiber</text>
<circle cx="38" cy="312" r="2.5" fill="#ffab00" fill-opacity="0.4"/>
<text x="50" y="317" font-family="'Courier New',monospace" font-size="12" fill="#6a8abf">GLSL / Shaders</text>

<text x="32" y="352" font-family="'Courier New',monospace" font-size="9" fill="#6a8abf" letter-spacing="2">STATE</text>
<line x1="32" y1="358" x2="278" y2="358" stroke="#6a8abf" stroke-width="0.6"/>
<circle cx="38" cy="378" r="2.5" fill="#1a6eee" fill-opacity="0.2"/>
<text x="50" y="383" font-family="'Courier New',monospace" font-size="12" fill="#6a8abf">Zustand</text>

<!-- ── COL 2: BACKEND + DB ── -->
<text x="330" y="56" font-family="'Courier New',monospace" font-size="9" fill="#6a8abf" letter-spacing="2">BACKEND</text>
<line x1="330" y1="62" x2="568" y2="62" stroke="#6a8abf" stroke-width="0.6"/>
<circle cx="336" cy="82" r="2.5" fill="#1a6eee" fill-opacity="0.7"/>
<text x="348" y="87" font-family="'Courier New',monospace" font-size="12" fill="#e0eeff">Node.js</text>
<circle cx="336" cy="106" r="2.5" fill="#1a6eee" fill-opacity="0.7"/>
<text x="348" y="111" font-family="'Courier New',monospace" font-size="12" fill="#e0eeff">Express</text>
<circle cx="336" cy="130" r="2.5" fill="#1a6eee" fill-opacity="0.7"/>
<text x="348" y="135" font-family="'Courier New',monospace" font-size="12" fill="#e0eeff">NestJS</text>
<circle cx="336" cy="154" r="2.5" fill="#1a6eee" fill-opacity="0.7"/>
<text x="348" y="159" font-family="'Courier New',monospace" font-size="12" fill="#e0eeff">Python</text>
<circle cx="336" cy="178" r="2.5" fill="#1a6eee" fill-opacity="0.2"/>
<text x="348" y="183" font-family="'Courier New',monospace" font-size="12" fill="#6a8abf">Socket.io</text>

<text x="330" y="196" font-family="'Courier New',monospace" font-size="9" fill="#6a8abf" letter-spacing="2">AUTH</text>
<line x1="330" y1="202" x2="568" y2="202" stroke="#6a8abf" stroke-width="0.6"/>
<circle cx="336" cy="222" r="2.5" fill="#1a6eee" fill-opacity="0.7"/>
<text x="348" y="227" font-family="'Courier New',monospace" font-size="12" fill="#e0eeff">NextAuth.js</text>
<circle cx="336" cy="246" r="2.5" fill="#1a6eee" fill-opacity="0.7"/>
<text x="348" y="251" font-family="'Courier New',monospace" font-size="12" fill="#e0eeff">Clerk</text>
<circle cx="336" cy="270" r="2.5" fill="#1a6eee" fill-opacity="0.4"/>
<text x="348" y="275" font-family="'Courier New',monospace" font-size="12" fill="#6a8abf">JWT / OAuth2</text>

<text x="330" y="310" font-family="'Courier New',monospace" font-size="9" fill="#6a8abf" letter-spacing="2">DATABASE</text>
<line x1="330" y1="316" x2="568" y2="316" stroke="#6a8abf" stroke-width="0.6"/>
<circle cx="336" cy="336" r="2.5" fill="#1a6eee" fill-opacity="0.7"/>
<text x="348" y="341" font-family="'Courier New',monospace" font-size="12" fill="#e0eeff">PostgreSQL</text>
<circle cx="336" cy="360" r="2.5" fill="#1a6eee" fill-opacity="0.7"/>
<text x="348" y="365" font-family="'Courier New',monospace" font-size="12" fill="#e0eeff">MySQL</text>
<circle cx="336" cy="384" r="2.5" fill="#1a6eee" fill-opacity="0.7"/>
<text x="348" y="389" font-family="'Courier New',monospace" font-size="12" fill="#e0eeff">MongoDB</text>
<circle cx="336" cy="408" r="2.5" fill="#1a6eee" fill-opacity="0.4"/>
<text x="348" y="413" font-family="'Courier New',monospace" font-size="12" fill="#6a8abf">Prisma · Drizzle</text>

<!-- ── COL 3: CLOUD + DEVOPS ── -->
<text x="620" y="56" font-family="'Courier New',monospace" font-size="9" fill="#6a8abf" letter-spacing="2">CLOUD</text>
<line x1="620" y1="62" x2="868" y2="62" stroke="#6a8abf" stroke-width="0.6"/>
<circle cx="626" cy="82" r="2.5" fill="#ffab00" fill-opacity="0.8"/>
<text x="638" y="87" font-family="'Courier New',monospace" font-size="12" fill="#e0eeff">AWS</text>
<circle cx="626" cy="106" r="2.5" fill="#ffab00" fill-opacity="0.8"/>
<text x="638" y="111" font-family="'Courier New',monospace" font-size="12" fill="#e0eeff">Google Cloud</text>
<circle cx="626" cy="130" r="2.5" fill="#ffab00" fill-opacity="0.8"/>
<text x="638" y="135" font-family="'Courier New',monospace" font-size="12" fill="#e0eeff">Vercel</text>
<circle cx="626" cy="154" r="2.5" fill="#ffab00" fill-opacity="0.4"/>
<text x="638" y="159" font-family="'Courier New',monospace" font-size="12" fill="#6a8abf">Azure</text>

<text x="620" y="196" font-family="'Courier New',monospace" font-size="9" fill="#6a8abf" letter-spacing="2">DEVOPS</text>
<line x1="620" y1="202" x2="868" y2="202" stroke="#6a8abf" stroke-width="0.6"/>
<circle cx="626" cy="222" r="2.5" fill="#ffab00" fill-opacity="0.8"/>
<text x="638" y="227" font-family="'Courier New',monospace" font-size="12" fill="#e0eeff">Docker</text>
<circle cx="626" cy="246" r="2.5" fill="#ffab00" fill-opacity="0.8"/>
<text x="638" y="251" font-family="'Courier New',monospace" font-size="12" fill="#e0eeff">Kubernetes</text>
<circle cx="626" cy="270" r="2.5" fill="#ffab00" fill-opacity="0.4"/>
<text x="638" y="275" font-family="'Courier New',monospace" font-size="12" fill="#6a8abf">Cloudflare</text>

<text x="620" y="310" font-family="'Courier New',monospace" font-size="9" fill="#6a8abf" letter-spacing="2">DATA / APIS</text>
<line x1="620" y1="316" x2="868" y2="316" stroke="#6a8abf" stroke-width="0.6"/>
<circle cx="626" cy="336" r="2.5" fill="#1a6eee" fill-opacity="0.7"/>
<text x="638" y="341" font-family="'Courier New',monospace" font-size="12" fill="#e0eeff">GraphQL</text>
<circle cx="626" cy="360" r="2.5" fill="#1a6eee" fill-opacity="0.7"/>
<text x="638" y="365" font-family="'Courier New',monospace" font-size="12" fill="#e0eeff">tRPC</text>
<circle cx="626" cy="384" r="2.5" fill="#1a6eee" fill-opacity="0.7"/>
<text x="638" y="389" font-family="'Courier New',monospace" font-size="12" fill="#e0eeff">REST</text>
<circle cx="626" cy="408" r="2.5" fill="#1a6eee" fill-opacity="0.4"/>
<text x="638" y="413" font-family="'Courier New',monospace" font-size="12" fill="#6a8abf">OpenAPI / Swagger</text>
</svg>
