<svg xmlns="http://www.w3.org/2000/svg" width="860" height="380" viewBox="0 0 860 380">
<defs>
  <style>
    .title { font-family:"Courier New",Courier,monospace; font-weight:600; font-size:11px; fill:#1a6eee; letter-spacing:3px; text-transform:uppercase; }
    .sub   { font-family:"Courier New",Courier,monospace; font-size:8px;   fill:#6a8abf; letter-spacing:2px; }
    .hub1  { font-family:"Courier New",Courier,monospace; font-size:7.5px; fill:#ffab00; letter-spacing:0.5px; font-weight:700; }
    .hub2  { font-family:"Courier New",Courier,monospace; font-size:7px;   fill:#c8dcff;  letter-spacing:0.5px; }
  </style>
  <filter id="g1" x="-100%" y="-100%" width="300%" height="300%">
    <feGaussianBlur stdDeviation="5" result="b"/>
    <feMerge><feMergeNode in="b"/><feMergeNode in="SourceGraphic"/></feMerge>
  </filter>
  <filter id="g2" x="-60%" y="-60%" width="220%" height="220%">
    <feGaussianBlur stdDeviation="2.5" result="b"/>
    <feMerge><feMergeNode in="b"/><feMergeNode in="SourceGraphic"/></feMerge>
  </filter>
  <filter id="g3" x="-30%" y="-30%" width="160%" height="160%">
    <feGaussianBlur stdDeviation="1.5" result="b"/>
    <feMerge><feMergeNode in="b"/><feMergeNode in="SourceGraphic"/></feMerge>
  </filter>
  <radialGradient id="ocean" cx="35%" cy="45%" r="65%">
    <stop offset="0%"   stop-color="#081440"/>
    <stop offset="100%" stop-color="#060d2e"/>
  </radialGradient>
  <radialGradient id="ga" cx="50%" cy="50%" r="50%">
    <stop offset="0%" stop-color="#ffab00" stop-opacity="0.9"/>
    <stop offset="100%" stop-color="#ffab00" stop-opacity="0"/>
  </radialGradient>
  <radialGradient id="gb" cx="50%" cy="50%" r="50%">
    <stop offset="0%" stop-color="#1a6eee" stop-opacity="0.8"/>
    <stop offset="100%" stop-color="#1a6eee" stop-opacity="0"/>
  </radialGradient>
</defs>
<rect width="860" height="380" fill="#060d2e"/>
<rect x="40" y="55" width="780" height="290" fill="url(#ocean)" rx="1"/>
<line x1="40" y1="322" x2="820" y2="322" stroke="#0a1535" stroke-width="0.5"/>
<line x1="40" y1="251" x2="820" y2="251" stroke="#0a1535" stroke-width="0.5"/>
<line x1="40" y1="200" x2="820" y2="200" stroke="#0a1535" stroke-width="0.5"/>
<line x1="40" y1="149" x2="820" y2="149" stroke="#0a1535" stroke-width="0.5"/>
<line x1="40" y1="78" x2="820" y2="78" stroke="#0a1535" stroke-width="0.5"/>
<line x1="40" y1="-89" x2="820" y2="-89" stroke="#0a1535" stroke-width="0.5"/>
<line x1="40" y1="387" x2="40" y2="-46" stroke="#0a1535" stroke-width="0.5"/>
<line x1="105" y1="387" x2="105" y2="-46" stroke="#0a1535" stroke-width="0.5"/>
<line x1="170" y1="387" x2="170" y2="-46" stroke="#0a1535" stroke-width="0.5"/>
<line x1="235" y1="387" x2="235" y2="-46" stroke="#0a1535" stroke-width="0.5"/>
<line x1="300" y1="387" x2="300" y2="-46" stroke="#0a1535" stroke-width="0.5"/>
<line x1="365" y1="387" x2="365" y2="-46" stroke="#0a1535" stroke-width="0.5"/>
<line x1="430" y1="387" x2="430" y2="-46" stroke="#0a1535" stroke-width="0.5"/>
<line x1="495" y1="387" x2="495" y2="-46" stroke="#0a1535" stroke-width="0.5"/>
<line x1="560" y1="387" x2="560" y2="-46" stroke="#0a1535" stroke-width="0.5"/>
<line x1="625" y1="387" x2="625" y2="-46" stroke="#0a1535" stroke-width="0.5"/>
<line x1="690" y1="387" x2="690" y2="-46" stroke="#0a1535" stroke-width="0.5"/>
<line x1="755" y1="387" x2="755" y2="-46" stroke="#0a1535" stroke-width="0.5"/>
<line x1="820" y1="387" x2="820" y2="-46" stroke="#0a1535" stroke-width="0.5"/>
<line x1="40" y1="200" x2="820" y2="200" stroke="#0d2460" stroke-width="1" stroke-dasharray="4,4" opacity="0.8"/>
<path d="M66.0,35.0 L126.7,39.8 L152.7,78.4 L161.3,109.2 L161.3,135.8 L176.5,145.5 L219.8,156.6 L241.5,149.3 L256.7,158.4 L256.7,145.5 L267.5,139.7 L278.3,125.3 L287.0,118.6 L300.0,114.0 L317.3,114.0 L315.2,106.7 L308.7,101.6 L300.0,93.5 L289.2,84.7 L282.7,71.8 L267.5,68.3 L252.3,68.3 L245.8,53.0 L235.0,44.4 L224.2,39.8 L213.3,29.9 L191.7,18.9 L170.0,18.9 L148.3,29.9 L126.7,39.8 L105.0,29.9 L83.3,29.9 L66.0,35.0 Z" fill="#0a1640" stroke="#0d1e55" stroke-width="0.7"/>
<path d="M241.5,173.9 L248.0,183.8 L263.2,187.1 L267.5,183.8 L250.2,177.2 L241.5,173.9 Z" fill="#0a1640" stroke="#0d1e55" stroke-width="0.7"/>
<path d="M252.3,187.1 L263.2,191.9 L278.3,200.0 L300.0,208.1 L321.7,216.2 L343.3,224.4 L354.2,216.2 L354.2,208.1 L347.7,200.0 L332.5,208.1 L321.7,247.0 L317.3,256.4 L304.3,260.3 L295.7,266.3 L289.2,274.7 L282.7,306.5 L289.2,315.3 L282.7,306.5 L267.5,293.3 L267.5,274.7 L274.0,266.3 L282.7,260.3 L289.2,236.3 L300.0,224.4 L310.8,216.2 L321.7,208.1 L326.0,200.0 L317.3,191.9 L304.3,187.1 L295.7,183.8 L282.7,180.5 L267.5,183.8 L252.3,187.1 Z" fill="#0a1640" stroke="#0d1e55" stroke-width="0.7"/>
<path d="M408.3,137.8 L419.2,137.8 L430.0,133.7 L440.8,135.8 L451.7,133.7 L462.5,133.7 L473.3,133.7 L484.2,133.7 L490.7,125.3 L495.0,118.6 L499.3,114.0 L505.8,114.0 L512.3,114.0 L508.0,125.3 L516.7,133.7 L512.3,135.8 L508.0,135.8 L490.7,133.7 L484.2,129.6 L477.7,129.6 L469.0,129.6 L462.5,125.3 L456.0,120.9 L451.7,120.9 L447.3,116.3 L451.7,111.6 L456.0,106.7 L462.5,101.6 L469.0,96.2 L473.3,90.6 L469.0,84.7 L464.7,78.4 L456.0,68.3 L447.3,68.3 L440.8,71.8 L434.3,84.7 L430.0,96.2 L425.7,101.6 L421.3,101.6 L419.2,111.6 L412.7,120.9 L408.3,129.6 L408.3,137.8 Z" fill="#0a1640" stroke="#0d1e55" stroke-width="0.7"/>
<path d="M440.8,87.7 L447.3,90.6 L451.7,90.6 L456.0,90.6 L460.3,90.6 L464.7,87.7 L469.0,84.7 L473.3,78.4 L477.7,71.8 L486.3,60.9 L490.7,48.8 L490.7,35.0 L484.2,35.0 L477.7,39.8 L469.0,48.8 L460.3,60.9 L451.7,71.8 L447.3,78.4 L440.8,87.7 Z" fill="#0a1640" stroke="#0d1e55" stroke-width="0.7"/>
<path d="M391.0,173.9 L397.5,183.8 L397.5,191.9 L408.3,191.9 L419.2,191.9 L430.0,191.9 L440.8,191.9 L451.7,193.6 L462.5,193.6 L473.3,191.9 L484.2,191.9 L495.0,191.9 L505.8,191.9 L512.3,187.1 L516.7,183.8 L521.0,180.5 L525.3,180.5 L521.0,175.6 L512.3,170.5 L508.0,163.7 L503.7,158.4 L499.3,149.3 L503.7,145.5 L499.3,149.3 L495.0,153.0 L490.7,163.7 L484.2,170.5 L477.7,175.6 L473.3,183.8 L469.0,191.9 L462.5,200.0 L456.0,208.1 L451.7,216.2 L462.5,224.4 L473.3,236.3 L484.2,247.0 L495.0,254.5 L499.3,250.7 L495.0,241.6 L490.7,236.3 L505.8,229.5 L512.3,219.5 L516.7,212.9 L521.0,203.2 L516.7,191.9 L508.0,183.8 L499.3,175.6 L490.7,170.5 L477.7,170.5 L469.0,175.6 L462.5,180.5 L451.7,183.8 L440.8,191.9 L430.0,191.9 L419.2,191.9 L412.7,191.9 L397.5,183.8 L391.0,173.9 Z" fill="#0a1640" stroke="#0d1e55" stroke-width="0.7"/>
<path d="M486.3,125.3 L495.0,125.3 L505.8,133.7 L516.7,133.7 L527.5,133.7 L538.3,133.7 L549.2,133.7 L560.0,129.6 L570.8,133.7 L581.7,137.8 L592.5,141.7 L603.3,145.5 L614.2,153.0 L625.0,158.4 L635.8,163.7 L646.7,167.1 L657.5,170.5 L668.3,167.1 L679.2,163.7 L690.0,160.2 L694.3,149.3 L700.8,139.7 L707.3,133.7 L711.7,129.6 L716.0,125.3 L722.5,125.3 L729.0,129.6 L733.3,133.7 L737.7,125.3 L737.7,116.3 L733.3,106.7 L729.0,93.5 L722.5,78.4 L716.0,71.8 L707.3,60.9 L694.3,48.8 L679.2,29.9 L657.5,12.8 L635.8,-8.0 L614.2,12.8 L592.5,29.9 L570.8,39.8 L549.2,48.8 L527.5,48.8 L516.7,60.9 L505.8,71.8 L495.0,84.7 L484.2,93.5 L477.7,101.6 L473.3,106.7 L477.7,114.0 L482.0,120.9 L486.3,125.3 Z" fill="#0a1640" stroke="#0d1e55" stroke-width="0.7"/>
<path d="M577.3,160.2 L586.0,160.2 L592.5,163.7 L599.0,170.5 L603.3,177.2 L607.7,183.8 L603.3,187.1 L596.8,187.1 L590.3,183.8 L586.0,177.2 L581.7,170.5 L577.3,163.7 L577.3,160.2 Z" fill="#0a1640" stroke="#0d1e55" stroke-width="0.7"/>
<path d="M646.7,167.1 L657.5,170.5 L668.3,173.9 L679.2,177.2 L690.0,180.5 L685.7,187.1 L679.2,191.9 L668.3,195.2 L657.5,196.8 L646.7,195.2 L642.3,191.9 L646.7,187.1 L651.0,180.5 L646.7,173.9 L646.7,167.1 Z" fill="#0a1640" stroke="#0d1e55" stroke-width="0.7"/>
<path d="M677.0,236.3 L685.7,232.9 L694.3,229.5 L703.0,226.1 L711.7,222.8 L722.5,219.5 L733.3,222.8 L737.7,229.5 L744.2,236.3 L750.7,243.4 L759.3,247.0 L763.7,250.7 L759.3,254.5 L755.0,262.2 L750.7,266.3 L742.0,266.3 L733.3,262.2 L724.7,262.2 L716.0,258.3 L707.3,258.3 L698.7,254.5 L690.0,250.7 L681.3,247.0 L677.0,243.4 L677.0,236.3 Z" fill="#0a1640" stroke="#0d1e55" stroke-width="0.7"/>
<path d="M711.7,147.4 L716.0,143.6 L718.2,141.7 L722.5,139.7 L726.8,135.8 L729.0,133.7 L733.3,129.6 L737.7,125.3 L737.7,120.9 L733.3,120.9 L729.0,125.3 L724.7,129.6 L720.3,133.7 L716.0,137.8 L711.7,141.7 L711.7,147.4 Z" fill="#0a1640" stroke="#0d1e55" stroke-width="0.7"/>
<path d="M417.0,106.7 L421.3,106.7 L425.7,104.2 L430.0,101.6 L434.3,101.6 L430.0,96.2 L425.7,96.2 L421.3,93.5 L417.0,90.6 L412.7,90.6 L412.7,96.2 L417.0,101.6 L419.2,106.7 L417.0,106.7 Z" fill="#0a1640" stroke="#0d1e55" stroke-width="0.7"/>
<path d="M310.8,78.4 L339.0,78.4 L378.0,71.8 L391.0,48.8 L391.0,6.4 L378.0,-24.9 L360.7,-57.9 L339.0,-57.9 L317.3,-45.6 L304.3,-8.0 L304.3,29.9 L313.0,48.8 L317.3,64.7 L310.8,78.4 Z" fill="#0a1640" stroke="#0d1e55" stroke-width="0.7"/>
<path d="M802.7,258.3 L807.0,262.2 L811.3,266.3 L815.7,266.3 L815.7,270.4 L811.3,274.7 L807.0,279.1 L802.7,279.1 L798.3,279.1 L794.0,283.7 L794.0,279.1 L798.3,274.7 L802.7,270.4 L802.7,266.3 L802.7,258.3 Z" fill="#0a1640" stroke="#0d1e55" stroke-width="0.7"/>
<rect x="40" y="55" width="780" height="290" fill="none" stroke="#142570" stroke-width="1" rx="1"/>
<path d="M692.2,176.2 Q428.5,102.2 164.8,134.2" fill="none" stroke="#ffab00" stroke-width="1.0" opacity="0.3" stroke-dasharray="3,5"/>
<path d="M692.2,176.2 Q480.9,96.1 269.7,128.1" fill="none" stroke="#ffab00" stroke-width="1.0" opacity="0.3" stroke-dasharray="3,5"/>
<path d="M692.2,176.2 Q561.0,70.9 429.7,102.9" fill="none" stroke="#ffab00" stroke-width="1.0" opacity="0.3" stroke-dasharray="3,5"/>
<path d="M692.2,176.2 Q575.6,68.2 459.0,100.2" fill="none" stroke="#ffab00" stroke-width="1.0" opacity="0.3" stroke-dasharray="3,5"/>
<path d="M692.2,176.2 Q673.6,144.2 654.9,197.8" fill="none" stroke="#ffab00" stroke-width="1.0" opacity="0.3" stroke-dasharray="3,5"/>
<path d="M692.2,176.2 Q621.0,126.0 549.8,158.0" fill="none" stroke="#ffab00" stroke-width="1.0" opacity="0.3" stroke-dasharray="3,5"/>
<path d="M692.2,176.2 Q598.8,113.4 505.4,145.4" fill="none" stroke="#ffab00" stroke-width="1.0" opacity="0.3" stroke-dasharray="3,5"/>
<path d="M692.2,176.2 Q712.4,106.4 732.7,138.4" fill="none" stroke="#1a6eee" stroke-width="0.7" opacity="0.15" stroke-dasharray="3,5"/>
<path d="M692.2,176.2 Q724.9,144.2 757.6,258.0" fill="none" stroke="#1a6eee" stroke-width="0.7" opacity="0.15" stroke-dasharray="3,5"/>
<path d="M692.2,176.2 Q475.1,89.7 258.0,121.7" fill="none" stroke="#1a6eee" stroke-width="0.7" opacity="0.15" stroke-dasharray="3,5"/>
<path d="M692.2,176.2 Q566.4,68.6 440.6,100.6" fill="none" stroke="#1a6eee" stroke-width="0.7" opacity="0.15" stroke-dasharray="3,5"/>
<path d="M692.2,176.2 Q510.6,144.2 329.0,239.1" fill="none" stroke="#1a6eee" stroke-width="0.7" opacity="0.15" stroke-dasharray="3,5"/>
<path d="M692.2,176.2 Q698.6,102.6 705.1,134.6" fill="none" stroke="#1a6eee" stroke-width="0.7" opacity="0.15" stroke-dasharray="3,5"/>
<path d="M692.2,176.2 Q645.1,144.2 598.1,178.9" fill="none" stroke="#1a6eee" stroke-width="0.7" opacity="0.15" stroke-dasharray="3,5"/>
<path d="M692.2,176.2 Q580.6,48.6 469.1,80.6" fill="none" stroke="#1a6eee" stroke-width="0.7" opacity="0.15" stroke-dasharray="3,5"/>
<circle cx="164.8" cy="134.2" r="3.5" fill="url(#ga)" opacity="0">
  <animate attributeName="r" values="3.5;14;3.5" dur="3s" begin="0.00s" repeatCount="indefinite"/>
  <animate attributeName="opacity" values="0.5;0;0.5" dur="3s" begin="0.00s" repeatCount="indefinite"/>
</circle>
<circle cx="164.8" cy="134.2" r="3.5" fill="#ffab00" filter="url(#g1)">
  <animate attributeName="opacity" values="1;0.6;1" dur="2.5s" begin="0.00s" repeatCount="indefinite"/>
</circle>
<text x="164.8" y="128.2" class="hub1" text-anchor="middle">SAN FRANCISCO</text>
<circle cx="269.7" cy="128.1" r="3.5" fill="url(#ga)" opacity="0">
  <animate attributeName="r" values="3.5;14;3.5" dur="3s" begin="0.25s" repeatCount="indefinite"/>
  <animate attributeName="opacity" values="0.5;0;0.5" dur="3s" begin="0.25s" repeatCount="indefinite"/>
</circle>
<circle cx="269.7" cy="128.1" r="3.5" fill="#ffab00" filter="url(#g1)">
  <animate attributeName="opacity" values="1;0.6;1" dur="2.5s" begin="0.25s" repeatCount="indefinite"/>
</circle>
<text x="269.7" y="122.1" class="hub1" text-anchor="middle">NEW YORK</text>
<circle cx="429.7" cy="102.9" r="3.5" fill="url(#ga)" opacity="0">
  <animate attributeName="r" values="3.5;14;3.5" dur="3s" begin="0.50s" repeatCount="indefinite"/>
  <animate attributeName="opacity" values="0.5;0;0.5" dur="3s" begin="0.50s" repeatCount="indefinite"/>
</circle>
<circle cx="429.7" cy="102.9" r="3.5" fill="#ffab00" filter="url(#g1)">
  <animate attributeName="opacity" values="1;0.6;1" dur="2.5s" begin="0.50s" repeatCount="indefinite"/>
</circle>
<text x="429.7" y="96.9" class="hub1" text-anchor="middle">LONDON</text>
<circle cx="459.0" cy="100.2" r="3.5" fill="url(#ga)" opacity="0">
  <animate attributeName="r" values="3.5;14;3.5" dur="3s" begin="0.75s" repeatCount="indefinite"/>
  <animate attributeName="opacity" values="0.5;0;0.5" dur="3s" begin="0.75s" repeatCount="indefinite"/>
</circle>
<circle cx="459.0" cy="100.2" r="3.5" fill="#ffab00" filter="url(#g1)">
  <animate attributeName="opacity" values="1;0.6;1" dur="2.5s" begin="0.75s" repeatCount="indefinite"/>
</circle>
<text x="459.0" y="94.2" class="hub1" text-anchor="middle">BERLIN</text>
<circle cx="654.9" cy="197.8" r="3.5" fill="url(#ga)" opacity="0">
  <animate attributeName="r" values="3.5;14;3.5" dur="3s" begin="1.00s" repeatCount="indefinite"/>
  <animate attributeName="opacity" values="0.5;0;0.5" dur="3s" begin="1.00s" repeatCount="indefinite"/>
</circle>
<circle cx="654.9" cy="197.8" r="3.5" fill="#ffab00" filter="url(#g1)">
  <animate attributeName="opacity" values="1;0.6;1" dur="2.5s" begin="1.00s" repeatCount="indefinite"/>
</circle>
<text x="654.9" y="208.8" class="hub1" text-anchor="middle">SINGAPORE</text>
<circle cx="549.8" cy="158.0" r="3.5" fill="url(#ga)" opacity="0">
  <animate attributeName="r" values="3.5;14;3.5" dur="3s" begin="1.25s" repeatCount="indefinite"/>
  <animate attributeName="opacity" values="0.5;0;0.5" dur="3s" begin="1.25s" repeatCount="indefinite"/>
</circle>
<circle cx="549.8" cy="158.0" r="3.5" fill="#ffab00" filter="url(#g1)">
  <animate attributeName="opacity" values="1;0.6;1" dur="2.5s" begin="1.25s" repeatCount="indefinite"/>
</circle>
<text x="549.8" y="152.0" class="hub1" text-anchor="middle">DUBAI</text>
<circle cx="505.4" cy="145.4" r="3.5" fill="url(#ga)" opacity="0">
  <animate attributeName="r" values="3.5;14;3.5" dur="3s" begin="1.50s" repeatCount="indefinite"/>
  <animate attributeName="opacity" values="0.5;0;0.5" dur="3s" begin="1.50s" repeatCount="indefinite"/>
</circle>
<circle cx="505.4" cy="145.4" r="3.5" fill="#ffab00" filter="url(#g1)">
  <animate attributeName="opacity" values="1;0.6;1" dur="2.5s" begin="1.50s" repeatCount="indefinite"/>
</circle>
<text x="505.4" y="139.4" class="hub1" text-anchor="middle">TEL AVIV</text>
<circle cx="732.7" cy="138.4" r="2.5" fill="url(#gb)" opacity="0">
  <animate attributeName="r" values="2.5;10;2.5" dur="3s" begin="1.75s" repeatCount="indefinite"/>
  <animate attributeName="opacity" values="0.5;0;0.5" dur="3s" begin="1.75s" repeatCount="indefinite"/>
</circle>
<circle cx="732.7" cy="138.4" r="2.5" fill="#1a6eee" filter="url(#g2)">
  <animate attributeName="opacity" values="1;0.6;1" dur="2.5s" begin="1.75s" repeatCount="indefinite"/>
</circle>
<text x="732.7" y="132.4" class="hub2" text-anchor="middle">TOKYO</text>
<circle cx="757.6" cy="258.0" r="2.5" fill="url(#gb)" opacity="0">
  <animate attributeName="r" values="2.5;10;2.5" dur="3s" begin="2.00s" repeatCount="indefinite"/>
  <animate attributeName="opacity" values="0.5;0;0.5" dur="3s" begin="2.00s" repeatCount="indefinite"/>
</circle>
<circle cx="757.6" cy="258.0" r="2.5" fill="#1a6eee" filter="url(#g2)">
  <animate attributeName="opacity" values="1;0.6;1" dur="2.5s" begin="2.00s" repeatCount="indefinite"/>
</circle>
<text x="757.6" y="269.0" class="hub2" text-anchor="middle">SYDNEY</text>
<circle cx="258.0" cy="121.7" r="2.5" fill="url(#gb)" opacity="0">
  <animate attributeName="r" values="2.5;10;2.5" dur="3s" begin="2.25s" repeatCount="indefinite"/>
  <animate attributeName="opacity" values="0.5;0;0.5" dur="3s" begin="2.25s" repeatCount="indefinite"/>
</circle>
<circle cx="258.0" cy="121.7" r="2.5" fill="#1a6eee" filter="url(#g2)">
  <animate attributeName="opacity" values="1;0.6;1" dur="2.5s" begin="2.25s" repeatCount="indefinite"/>
</circle>
<text x="258.0" y="115.7" class="hub2" text-anchor="middle">TORONTO</text>
<circle cx="440.6" cy="100.6" r="2.5" fill="url(#gb)" opacity="0">
  <animate attributeName="r" values="2.5;10;2.5" dur="3s" begin="2.50s" repeatCount="indefinite"/>
  <animate attributeName="opacity" values="0.5;0;0.5" dur="3s" begin="2.50s" repeatCount="indefinite"/>
</circle>
<circle cx="440.6" cy="100.6" r="2.5" fill="#1a6eee" filter="url(#g2)">
  <animate attributeName="opacity" values="1;0.6;1" dur="2.5s" begin="2.50s" repeatCount="indefinite"/>
</circle>
<text x="440.6" y="94.6" class="hub2" text-anchor="middle">AMSTERDAM</text>
<circle cx="329.0" cy="239.1" r="2.5" fill="url(#gb)" opacity="0">
  <animate attributeName="r" values="2.5;10;2.5" dur="3s" begin="2.75s" repeatCount="indefinite"/>
  <animate attributeName="opacity" values="0.5;0;0.5" dur="3s" begin="2.75s" repeatCount="indefinite"/>
</circle>
<circle cx="329.0" cy="239.1" r="2.5" fill="#1a6eee" filter="url(#g2)">
  <animate attributeName="opacity" values="1;0.6;1" dur="2.5s" begin="2.75s" repeatCount="indefinite"/>
</circle>
<text x="329.0" y="250.1" class="hub2" text-anchor="middle">SÃO PAULO</text>
<circle cx="705.1" cy="134.6" r="2.5" fill="url(#gb)" opacity="0">
  <animate attributeName="r" values="2.5;10;2.5" dur="3s" begin="3.00s" repeatCount="indefinite"/>
  <animate attributeName="opacity" values="0.5;0;0.5" dur="3s" begin="3.00s" repeatCount="indefinite"/>
</circle>
<circle cx="705.1" cy="134.6" r="2.5" fill="#1a6eee" filter="url(#g2)">
  <animate attributeName="opacity" values="1;0.6;1" dur="2.5s" begin="3.00s" repeatCount="indefinite"/>
</circle>
<text x="705.1" y="128.6" class="hub2" text-anchor="middle">SEOUL</text>
<circle cx="598.1" cy="178.9" r="2.5" fill="url(#gb)" opacity="0">
  <animate attributeName="r" values="2.5;10;2.5" dur="3s" begin="3.25s" repeatCount="indefinite"/>
  <animate attributeName="opacity" values="0.5;0;0.5" dur="3s" begin="3.25s" repeatCount="indefinite"/>
</circle>
<circle cx="598.1" cy="178.9" r="2.5" fill="#1a6eee" filter="url(#g2)">
  <animate attributeName="opacity" values="1;0.6;1" dur="2.5s" begin="3.25s" repeatCount="indefinite"/>
</circle>
<text x="598.1" y="189.9" class="hub2" text-anchor="middle">BANGALORE</text>
<circle cx="469.1" cy="80.6" r="2.5" fill="url(#gb)" opacity="0">
  <animate attributeName="r" values="2.5;10;2.5" dur="3s" begin="3.50s" repeatCount="indefinite"/>
  <animate attributeName="opacity" values="0.5;0;0.5" dur="3s" begin="3.50s" repeatCount="indefinite"/>
</circle>
<circle cx="469.1" cy="80.6" r="2.5" fill="#1a6eee" filter="url(#g2)">
  <animate attributeName="opacity" values="1;0.6;1" dur="2.5s" begin="3.50s" repeatCount="indefinite"/>
</circle>
<text x="469.1" y="74.6" class="hub2" text-anchor="middle">STOCKHOLM</text>
<circle cx="692.2" cy="176.2" r="5" fill="#ffab00" filter="url(#g1)">
  <animate attributeName="opacity" values="1;0.3;1" dur="1.5s" repeatCount="indefinite"/>
</circle>
<circle cx="692.2" cy="176.2" r="5" fill="url(#ga)">
  <animate attributeName="r" values="6;20;6" dur="1.5s" repeatCount="indefinite"/>
  <animate attributeName="opacity" values="0.6;0;0.6" dur="1.5s" repeatCount="indefinite"/>
</circle>
<text x="692.2" y="167.2" class="hub1" text-anchor="middle">@ME-MOIR</text>
<text x="692.2" y="190.2" class="sub" text-anchor="middle">MANILA · PH</text>
<rect width="860" height="380" fill="none" stroke="#142570" stroke-width="1" rx="2"/>
<line x1="0" y1="0" x2="14" y2="0" stroke="#1a6eee" stroke-width="1.5"/>
<line x1="0" y1="0" x2="0" y2="14" stroke="#1a6eee" stroke-width="1.5"/>
<line x1="860" y1="0" x2="846" y2="0" stroke="#1a6eee" stroke-width="1.5"/>
<line x1="860" y1="0" x2="860" y2="14" stroke="#1a6eee" stroke-width="1.5"/>
<line x1="0" y1="380" x2="14" y2="380" stroke="#1a6eee" stroke-width="1.5"/>
<line x1="0" y1="380" x2="0" y2="366" stroke="#1a6eee" stroke-width="1.5"/>
<line x1="860" y1="380" x2="846" y2="380" stroke="#1a6eee" stroke-width="1.5"/>
<line x1="860" y1="380" x2="860" y2="366" stroke="#1a6eee" stroke-width="1.5"/>
<line x1="60" y1="1" x2="800" y2="1" stroke="rgba(100,160,255,0.3)" stroke-width="0.5"/>
<rect x="0" y="0" width="860" height="42" fill="#1a6eee" fill-opacity="0.05"/>
<rect x="0" y="42" width="860" height="1" fill="#0d2460"/>
<circle cx="22" cy="21" r="4" fill="#1a6eee"><animate attributeName="opacity" values="1;0.2;1" dur="2s" repeatCount="indefinite"/></circle>
<circle cx="22" cy="21" r="10" fill="#1a6eee" fill-opacity="0"><animate attributeName="r" values="5;13;5" dur="2s" repeatCount="indefinite"/><animate attributeName="fill-opacity" values="0.12;0;0.12" dur="2s" repeatCount="indefinite"/></circle>
<text x="34" y="16" class="title">Tech Deployment Map</text>
<text x="34" y="30" class="sub">@ME-MOIR · STACK INFLUENCE ZONES · AMBER = PRIMARY · BLUE = SECONDARY</text>
<text x="838" y="16" class="sub" text-anchor="end">NEXT.JS · REACT · TS · THREE.JS · PALANTIR</text>
<text x="838" y="30" class="sub" text-anchor="end">AWS · GCP · VERCEL · POSTGRESQL · PRISMA</text>
<circle cx="46" cy="364" r="3" fill="#ffab00" filter="url(#g3)"/>
<text x="54" y="368" class="sub">PRIMARY HUB</text>
<circle cx="148" cy="364" r="2.5" fill="#1a6eee" filter="url(#g3)"/>
<text x="156" y="368" class="sub">SECONDARY HUB</text>
<circle cx="266" cy="364" r="4" fill="#ffab00" filter="url(#g3)"/>
<text x="275" y="368" class="sub">HOME BASE ( MANILA · PH )</text>
<text x="838" y="368" class="sub" text-anchor="end">SYNCED 05 Mar 2026 11:38 UTC</text>
</svg>